HIERARCHY
ROOT Hips
{
  OFFSET 0 0 0
  CHANNELS 6 Xposition Yposition Zposition Zrotation Yrotation Xrotation
  JOINT LeftThigh
  {
    OFFSET 8.409438 0 -5.917753
    CHANNELS 3 Zrotation Yrotation Xrotation
    JOINT LeftLeg
    {
      OFFSET 0 0 -42.358652
      CHANNELS 3 Zrotation Yrotation Xrotation
      JOINT LeftFoot
      {
        OFFSET 0 0 -39.357303
        CHANNELS 3 Zrotation Yrotation Xrotation
      }
    }
  }
  JOINT RightThigh
  {
    OFFSET -8.409438 0 -5.917753
    CHANNELS 3 Zrotation Yrotation Xrotation
    JOINT RightLeg
    {
      OFFSET 0 0 -42.358652
      CHANNELS 3 Zrotation Yrotation Xrotation
      JOINT RightFoot
      {
        OFFSET 0 0 -39.357303
        CHANNELS 3 Zrotation Yrotation Xrotation
      }
    }
  }
  JOINT SpineLow
  {
    OFFSET 0 0 4.719101
    CHANNELS 3 Zrotation Yrotation Xrotation
    JOINT SpineMid
    {
      OFFSET 0 0 12.899191
      CHANNELS 3 Zrotation Yrotation Xrotation
      JOINT Chest
      {
        OFFSET 0 0 12.899191
        CHANNELS 3 Zrotation Yrotation Xrotation
        JOINT LeftShoulder
        {
          OFFSET 7.550562 1.41573 9.438202
          CHANNELS 3 Zrotation Yrotation Xrotation
          JOINT LeftArm
          {
            OFFSET 9.155056 0 4.247191
            CHANNELS 3 Zrotation Yrotation Xrotation
            JOINT LeftForearm
            {
              OFFSET 0 0 25.771955
              CHANNELS 3 Zrotation Yrotation Xrotation
              JOINT LeftHand
              {
                OFFSET 0 0 25.197169
                CHANNELS 3 Zrotation Yrotation Xrotation
              }
            }
          }
        }
        JOINT RightShoulder
        {
          OFFSET -7.550562 1.41573 9.438202
          CHANNELS 3 Zrotation Yrotation Xrotation
          JOINT RightArm
          {
            OFFSET -9.155056 0 4.247191
            CHANNELS 3 Zrotation Yrotation Xrotation
            JOINT RightForearm
            {
              OFFSET 0 0 -25.771955
              CHANNELS 3 Zrotation Yrotation Xrotation
              JOINT RightHand
              {
                OFFSET 0 0 -25.197169
                CHANNELS 3 Zrotation Yrotation Xrotation
              }
            }
          }
        }
        JOINT Neck
        {
          OFFSET 0 0 15.101124
          CHANNELS 3 Zrotation Yrotation Xrotation
          JOINT Head
          {
            OFFSET 0 0 11.325843
            CHANNELS 3 Zrotation Yrotation Xrotation
            End Site
            {
              OFFSET 0 0 14.157303
            }
          }
        }
      }
    }
  }
}
MOTION
Frames: 17
Frame Time: 0.0
0.0  89.887642  0.0  0.277865  -7.17436  -94.498141  12.574054  -12.355894  3.337577  1.940389  -0.093067  10.737543  0.42343  -0.202004  -0.413464  -16.120964  11.047382  -4.829499  -5.730225  4.949785  13.080898  4.010879  1.242641  -0.563083  -1.317141  -0.079509  0.197921  -3.600906  -0.206476  0.545143  -3.600906  -0.206476  0.545142  -6.631417  11.170316  9.111934  152.225867  33.384474  -157.326663  -0.369072  0.142528  67.758699  78.202134  7.827647  -2.141877  -4.192396  -11.886852  13.491709  83.602846  24.368239  42.794757  3.788458  17.145458  -43.208111  105.900223  -13.114406  -17.07103  -10.657769  -8.44826  -26.335055  -8.363848  -5.892436  -19.870324  
0.0  89.887642  0.0  0.315196  -6.699776  -94.461869  12.403144  -12.311051  3.066537  1.671671  -0.060573  10.843724  0.461483  -0.176634  -0.349683  -16.175429  11.028847  -4.944509  -5.59108  5.012088  13.412003  3.889104  1.353932  -0.588006  -1.322646  -0.07299  0.204588  -3.615916  -0.188253  0.563022  -3.615916  -0.188253  0.563022  -6.87373  11.207179  8.968188  151.790375  33.343769  -157.575069  -0.508103  0.425672  66.831964  78.043767  7.720113  -2.084359  -4.41698  -11.819834  13.365153  83.341033  24.131058  42.741967  3.650791  17.32971  -43.01401  105.913358  -13.282829  -16.806349  -10.947417  -8.37489  -26.473499  -8.58031  -5.822501  -19.977719  
0.0  89.887642  0.0  0.384665  -6.134806  -94.421717  12.238597  -12.256345  2.840854  1.412536  0.009391  10.949823  0.423091  -0.174047  -0.327223  -16.116427  11.093155  -5.014953  -5.985658  5.147502  13.746473  3.847968  1.391248  -0.635892  -1.360584  -0.054907  0.206358  -3.719463  -0.13842  0.566942  -3.719463  -0.13842  0.566942  -6.894382  11.205566  8.881362  151.322248  33.318654  -157.797198  -0.586061  0.615374  66.066815  77.981427  7.700029  -1.953324  -4.525355  -11.719927  13.288871  82.873076  23.991613  42.489249  3.587174  17.349743  -42.913622  105.96945  -13.595182  -16.552209  -11.148074  -8.353257  -26.551675  -8.731181  -5.796241  -20.039098  
0.0  89.887642  0.0  0.42194  -5.566637  -94.419935  11.923019  -12.219971  2.58919  1.193514  0.056577  11.093699  0.459916  -0.144471  -0.247881  -16.111026  11.231743  -5.080607  -6.441773  5.342113  14.132014  3.921282  1.356809  -0.666483  -1.387497  -0.048214  0.220448  -3.792992  -0.119094  0.60511  -3.792992  -0.119094  0.60511  -7.110021  11.257851  8.769531  150.670271  33.485694  -157.964742  -0.876144  0.704968  65.264188  77.93211  7.779826  -1.724111  -4.729866  -11.608778  13.157013  82.460386  23.857522  42.362357  3.425911  17.347233  -43.009211  105.982071  -13.933099  -16.298077  -11.438145  -8.301982  -26.69763  -8.948969  -5.742556  -20.152282  
0.0  89.887642  0.0  0.528724  -4.896621  -94.385335  11.583353  -12.104708  2.354779  0.952852  0.124542  11.225212  0.426911  -0.136337  -0.220662  -16.253638  11.428921  -5.243387  -6.950795  5.45616  14.599891  3.929016  1.409549  -0.716227  -1.435162  -0.025337  0.219581  -3.923065  -0.056201  0.601463  -3.923065  -0.056201  0.601463  -7.233075  11.34757  8.789241  150.361781  33.65502  -158.040819  -0.75909  0.69023  64.742254  77.86855  7.953128  -1.369998  -4.836171  -11.515207  13.054264  81.938392  23.751652  42.167243  3.297085  17.426643  -43.159619  105.97357  -14.221503  -15.9968  -11.682881  -8.283375  -26.771859  -9.132981  -5.716589  -20.211383  
0.0  89.887642  0.0  0.588658  -4.1965  -94.341292  11.272072  -12.045265  2.136736  0.636041  0.194075  11.332554  0.45227  -0.114912  -0.178869  -16.645698  11.621494  -5.50406  -7.485476  5.57073  15.053401  4.087038  1.479634  -0.722439  -1.483851  -0.021169  0.221266  -4.056114  -0.044267  0.605846  -4.056114  -0.044267  0.605846  -7.444775  11.490767  8.771509  149.803629  34.001408  -158.065836  -0.898874  0.69414  64.133636  77.799371  8.19369  -0.925384  -5.037451  -11.357366  12.862585  81.398613  23.67888  42.006765  3.252222  17.609741  -43.411141  106.009768  -14.462982  -15.681748  -11.973545  -8.219123  -26.893759  -9.350311  -5.653326  -20.306359  
0.0  89.887642  0.0  0.707986  -3.438626  -94.280422  10.858377  -11.901019  1.876986  0.356427  0.271252  11.468197  0.447348  -0.106199  -0.156107  -17.069739  11.819693  -5.763079  -7.577625  5.645386  15.564002  4.037079  1.507924  -0.736195  -1.557351  -0.013751  0.211035  -4.256947  -0.023984  0.577454  -4.256947  -0.023984  0.577454  -7.562085  11.70759  8.748259  149.589238  34.29216  -158.152547  -0.732547  0.757498  63.83493  77.738253  8.484404  -0.408968  -5.118022  -11.131368  12.688851  80.965846  23.549247  41.8308  3.119549  17.855582  -43.656357  106.011664  -14.725002  -15.339817  -12.175666  -8.144144  -26.967597  -9.500021  -5.586677  -20.363838  
0.0  89.887642  0.0  0.772577  -2.618343  -94.177237  10.57752  -11.863328  1.599317  -0.081437  0.388571  11.541583  0.433805  -0.08351  -0.112666  -18.033452  11.970753  -6.248036  -7.398408  5.656736  16.153759  4.174358  1.592922  -0.725277  -1.616735  -0.023057  0.219308  -4.419352  -0.048336  0.600688  -4.419352  -0.048336  0.600688  -7.990685  11.86929  8.411063  148.49763  34.820668  -158.234422  -1.464597  0.913319  63.028021  77.684464  8.853867  0.162155  -5.353335  -10.86492  12.358783  80.280769  23.57927  41.535047  3.270407  18.259879  -43.921159  105.986785  -14.994452  -14.888619  -12.508319  -8.047492  -27.175564  -9.748804  -5.495301  -20.523425  
0.0  89.887642  0.0  0.822822  -1.832383  -94.058545  10.282251  -11.824983  1.208856  -0.44609  0.532072  11.7445  0.406736  -0.077815  -0.093454  -18.536255  12.11727  -6.594359  -7.366087  5.66015  16.812605  4.109829  1.68677  -0.80159  -1.703525  -0.037054  0.200237  -4.656689  -0.087126  0.549624  -4.656689  -0.087126  0.549624  -8.105339  12.0802  8.19438  148.217176  35.0332  -158.383336  -1.418304  1.136646  62.834571  77.657589  9.306952  0.758128  -5.369499  -10.568979  12.148433  79.769823  23.475593  41.274716  3.256887  18.73575  -44.147271  105.901416  -15.284122  -14.268432  -12.680597  -7.933167  -27.250947  -9.874478  -5.40017  -20.581016  
0.0  89.887642  0.0  0.827464  -0.878722  -93.824332  9.950861  -11.89226  0.62366  -1.11673  0.764019  11.857689  0.539124  -0.027566  0.057394  -19.415186  12.200255  -7.215753  -7.70231  5.685144  17.570202  4.464182  1.911654  -0.826231  -1.792595  -0.055313  0.166678  -4.90024  -0.138748  0.459409  -4.90024  -0.138748  0.459409  -8.59858  12.290047  7.957551  147.887356  35.369334  -158.413463  -1.63521  1.406609  62.471958  77.674098  9.826016  1.322326  -5.455389  -10.291717  12.008072  79.05544  23.567365  40.861309  3.430885  19.371255  -44.3331  105.788478  -15.645879  -13.419808  -12.990794  -7.810641  -27.362496  -10.103848  -5.291954  -20.667532  
0.0  89.887642  0.0  0.787472  -0.152988  -93.640246  9.930272  -12.0571  -0.002774  -1.585115  1.075604  12.250681  0.485207  -0.031185  0.083829  -19.642367  12.283296  -7.744274  -7.99999  5.748061  18.560924  4.412772  2.068555  -0.918666  -1.861072  -0.077707  0.14223  -5.087504  -0.201319  0.394484  -5.087504  -0.201319  0.394484  -8.822387  12.526669  7.826413  147.505129  35.750964  -158.416704  -1.695578  1.682142  62.199645  77.727407  10.313376  1.762787  -5.418623  -10.020297  11.889206  78.515178  23.67686  40.446321  3.521312  20.118218  -44.462513  105.653171  -16.07254  -12.325803  -13.211937  -7.717222  -27.432428  -10.266964  -5.210364  -20.721873  
0.0  89.887642  0.0  0.728487  0.833695  -93.269328  9.74703  -12.265385  -0.964217  -2.126275  1.5076  12.772566  0.407043  -0.027039  0.119318  -20.017169  12.276006  -8.579602  -8.691477  5.936609  19.729264  4.368214  2.297861  -0.992729  -1.972707  -0.093408  0.093654  -5.392573  -0.247491  0.263414  -5.392573  -0.247491  0.263413  -9.525393  12.668873  7.586675  147.354875  36.097489  -158.320785  -1.928246  1.952713  61.815607  77.821547  10.811532  1.9832  -5.331565  -9.800215  11.824705  78.054949  23.894739  39.940563  3.700919  21.100837  -44.481531  105.43695  -16.56041  -11.007386  -13.483774  -7.664561  -27.534643  -10.470301  -5.156435  -20.801643  
0.0  89.887642  0.0  0.627598  1.367106  -93.027862  10.142712  -12.613377  -1.912159  -2.696184  2.062488  13.499201  0.335182  -0.048392  0.121972  -19.647482  12.17085  -9.307295  -9.30563  6.356385  21.056815  4.166437  2.437865  -0.988267  -2.008937  -0.101233  0.072148  -5.491554  -0.270502  0.20546  -5.491553  -0.270502  0.20546  -9.997245  12.841867  7.517346  146.962695  36.576341  -158.208979  -2.144432  2.268955  61.530915  77.996933  11.418093  1.929325  -5.254866  -9.616759  11.818848  77.750993  24.183056  39.327  3.872499  22.278803  -44.380736  105.23136  -17.067615  -9.589817  -13.742451  -7.691759  -27.596369  -10.666519  -5.163981  -20.85202  
0.0  89.887642  0.0  0.568543  2.166877  -92.601103  10.295838  -12.908355  -3.168458  -3.332805  2.722592  14.300888  0.258098  -0.012455  0.12587  -19.266224  11.812541  -10.073645  -12.239068  7.281625  21.675932  6.053035  3.028788  -0.607239  -2.083859  -0.083103  -0.001986  -5.696033  -0.227131  0.001733  -5.696033  -0.227131  0.001733  -11.631181  12.664316  7.224127  145.944407  37.12976  -157.839766  -4.017823  2.629819  60.102348  78.283016  12.163994  1.51688  -5.207128  -9.533059  12.069321  77.594013  24.584304  38.663997  4.090403  23.573335  -44.197811  105.057943  -17.560131  -8.231941  -14.07565  -7.755214  -27.551664  -10.918636  -5.197781  -20.824318  
0.0  89.887642  0.0  0.484863  2.674878  -92.155701  10.625237  -13.243781  -4.523282  -3.536115  3.439581  15.369276  0.17145  -0.032687  0.099638  -18.390598  11.388972  -10.812483  -12.782354  7.779961  22.724803  5.901086  3.226094  -0.395111  -2.117811  -0.060233  -0.08508  -5.788616  -0.171943  -0.227081  -5.788616  -0.171943  -0.227081  -12.136663  12.673852  7.420261  145.360398  37.514722  -157.675178  -4.656939  3.215526  59.765241  78.61044  12.988732  0.633889  -5.164849  -9.45726  12.380548  77.642812  25.000502  37.946776  4.296463  24.864903  -43.989524  104.962188  -18.056314  -7.011511  -14.400378  -7.862411  -27.428563  -11.165005  -5.266719  -20.738511  
0.0  89.887642  0.0  0.353529  3.158013  -91.580366  10.742079  -13.546397  -6.055678  -2.391586  3.928701  17.240975  -0.564919  -0.143198  -0.387803  -17.482071  10.877031  -11.798938  -12.657771  8.204303  24.014679  5.443083  3.347742  -0.200818  -2.176486  -0.042768  -0.161414  -5.948898  -0.131311  -0.436951  -5.948897  -0.131311  -0.436951  -12.639604  12.536318  7.551797  144.65001  37.876695  -157.381676  -5.83125  4.053437  59.302182  78.858187  13.796667  -0.845726  -4.809009  -9.579441  12.58733  77.64642  25.60043  37.226373  4.60506  26.130865  -43.739927  104.975338  -18.567866  -5.850861  -14.636122  -8.05576  -27.373954  -11.349096  -5.402995  -20.704168  
0.0  89.887642  0.0  0.13714  3.138944  -91.120946  11.383893  -13.901585  -7.534569  -1.944507  4.403324  18.507366  -0.762449  -0.128481  -0.457795  -16.148582  10.301871  -12.819093  -13.02018  8.669981  25.396372  5.313633  3.565428  -0.047656  -2.18469  -0.027047  -0.172727  -5.971408  -0.089454  -0.469249  -5.971408  -0.089454  -0.469249  -13.13165  12.195669  7.470255  143.883621  38.114808  -157.110381  -7.598986  5.261867  58.919128  78.852234  14.568421  -2.939263  -4.382692  -9.906257  12.440418  78.031127  26.144974  36.581937  4.935862  27.386927  -43.375925  104.985618  -19.063773  -4.609536  -14.758513  -8.392328  -27.426081  -11.455595  -5.649652  -20.750411  
